<mxfile host="Electron" modified="2023-05-08T08:54:57.780Z" agent="Mozilla/5.0 (Windows NT 10.0; Win64; x64) AppleWebKit/537.36 (KHTML, like Gecko) draw.io/21.2.8 Chrome/112.0.5615.165 Electron/24.2.0 Safari/537.36" etag="shQgHdfo2hsuy8eUE7IS" version="21.2.8" type="device">
  <diagram name="Page-1" id="c7558073-3199-34d8-9f00-42111426c3f3">
    <mxGraphModel dx="1050" dy="669" grid="1" gridSize="10" guides="1" tooltips="1" connect="1" arrows="1" fold="1" page="1" pageScale="1" pageWidth="826" pageHeight="1169" background="none" math="0" shadow="0">
      <root>
        <mxCell id="0" />
        <mxCell id="1" parent="0" />
        <mxCell id="nj0VBdOls4TEGpNAEVAh-98" style="edgeStyle=elbowEdgeStyle;shape=connector;rounded=1;orthogonalLoop=1;jettySize=auto;elbow=horizontal;html=1;entryX=0;entryY=0.5;entryDx=0;entryDy=0;labelBackgroundColor=default;strokeColor=#990000;strokeWidth=2;fontFamily=Helvetica;fontSize=11;fontColor=default;endArrow=classic;" edge="1" parent="1" source="nj0VBdOls4TEGpNAEVAh-96" target="nj0VBdOls4TEGpNAEVAh-97">
          <mxGeometry relative="1" as="geometry" />
        </mxCell>
        <mxCell id="nj0VBdOls4TEGpNAEVAh-101" style="edgeStyle=elbowEdgeStyle;shape=connector;rounded=1;orthogonalLoop=1;jettySize=auto;elbow=horizontal;html=1;entryX=0.5;entryY=0;entryDx=0;entryDy=0;labelBackgroundColor=default;strokeColor=#990000;strokeWidth=2;fontFamily=Helvetica;fontSize=11;fontColor=default;endArrow=classic;" edge="1" parent="1" source="nj0VBdOls4TEGpNAEVAh-96" target="nj0VBdOls4TEGpNAEVAh-99">
          <mxGeometry relative="1" as="geometry" />
        </mxCell>
        <mxCell id="nj0VBdOls4TEGpNAEVAh-102" style="edgeStyle=elbowEdgeStyle;shape=connector;rounded=1;orthogonalLoop=1;jettySize=auto;elbow=horizontal;html=1;entryX=0.5;entryY=0;entryDx=0;entryDy=0;labelBackgroundColor=default;strokeColor=#990000;strokeWidth=2;fontFamily=Helvetica;fontSize=11;fontColor=default;endArrow=classic;" edge="1" parent="1" source="nj0VBdOls4TEGpNAEVAh-96" target="nj0VBdOls4TEGpNAEVAh-100">
          <mxGeometry relative="1" as="geometry" />
        </mxCell>
        <mxCell id="nj0VBdOls4TEGpNAEVAh-111" style="edgeStyle=elbowEdgeStyle;shape=connector;rounded=1;orthogonalLoop=1;jettySize=auto;elbow=horizontal;html=1;entryX=0;entryY=0.5;entryDx=0;entryDy=0;labelBackgroundColor=default;strokeColor=#990000;strokeWidth=2;fontFamily=Helvetica;fontSize=11;fontColor=default;endArrow=classic;" edge="1" parent="1" source="nj0VBdOls4TEGpNAEVAh-96" target="nj0VBdOls4TEGpNAEVAh-110">
          <mxGeometry relative="1" as="geometry" />
        </mxCell>
        <mxCell id="nj0VBdOls4TEGpNAEVAh-113" style="edgeStyle=elbowEdgeStyle;shape=connector;rounded=1;orthogonalLoop=1;jettySize=auto;elbow=horizontal;html=1;labelBackgroundColor=default;strokeColor=#990000;strokeWidth=2;fontFamily=Helvetica;fontSize=11;fontColor=default;endArrow=classic;" edge="1" parent="1" source="nj0VBdOls4TEGpNAEVAh-96" target="nj0VBdOls4TEGpNAEVAh-112">
          <mxGeometry relative="1" as="geometry" />
        </mxCell>
        <mxCell id="nj0VBdOls4TEGpNAEVAh-141" style="edgeStyle=elbowEdgeStyle;shape=connector;rounded=1;orthogonalLoop=1;jettySize=auto;elbow=horizontal;html=1;labelBackgroundColor=default;strokeColor=#990000;strokeWidth=2;fontFamily=Helvetica;fontSize=11;fontColor=default;endArrow=classic;" edge="1" parent="1" source="nj0VBdOls4TEGpNAEVAh-96" target="nj0VBdOls4TEGpNAEVAh-140">
          <mxGeometry relative="1" as="geometry" />
        </mxCell>
        <mxCell id="nj0VBdOls4TEGpNAEVAh-96" value="Frontpage" style="shape=process;whiteSpace=wrap;align=center;verticalAlign=middle;size=0.0475;fontStyle=1;strokeWidth=3;fillColor=#FFCCCC;fontFamily=Helvetica;fontSize=11;fontColor=default;" vertex="1" parent="1">
          <mxGeometry x="212.99999999999991" y="70" width="400" height="50" as="geometry" />
        </mxCell>
        <mxCell id="nj0VBdOls4TEGpNAEVAh-97" value="Contact form" style="whiteSpace=wrap;align=center;verticalAlign=middle;fontStyle=1;strokeWidth=3;fillColor=#FFFFCC;fontFamily=Helvetica;fontSize=11;fontColor=default;" vertex="1" parent="1">
          <mxGeometry x="670" y="65" width="90" height="60" as="geometry" />
        </mxCell>
        <mxCell id="nj0VBdOls4TEGpNAEVAh-104" style="edgeStyle=elbowEdgeStyle;shape=connector;rounded=1;orthogonalLoop=1;jettySize=auto;elbow=horizontal;html=1;entryX=0;entryY=0.75;entryDx=0;entryDy=0;labelBackgroundColor=default;strokeColor=#990000;strokeWidth=2;fontFamily=Helvetica;fontSize=11;fontColor=default;endArrow=classic;exitX=1;exitY=0.75;exitDx=0;exitDy=0;" edge="1" parent="1" source="nj0VBdOls4TEGpNAEVAh-99" target="nj0VBdOls4TEGpNAEVAh-100">
          <mxGeometry relative="1" as="geometry" />
        </mxCell>
        <mxCell id="nj0VBdOls4TEGpNAEVAh-99" value="Sign up" style="whiteSpace=wrap;align=center;verticalAlign=middle;fontStyle=1;strokeWidth=3;fillColor=#FFFFCC;fontFamily=Helvetica;fontSize=11;fontColor=default;" vertex="1" parent="1">
          <mxGeometry x="290" y="160" width="90" height="60" as="geometry" />
        </mxCell>
        <mxCell id="nj0VBdOls4TEGpNAEVAh-103" style="edgeStyle=elbowEdgeStyle;shape=connector;rounded=1;orthogonalLoop=1;jettySize=auto;elbow=horizontal;html=1;entryX=1;entryY=0.25;entryDx=0;entryDy=0;labelBackgroundColor=default;strokeColor=#990000;strokeWidth=2;fontFamily=Helvetica;fontSize=11;fontColor=default;endArrow=classic;exitX=0;exitY=0.25;exitDx=0;exitDy=0;" edge="1" parent="1" source="nj0VBdOls4TEGpNAEVAh-100" target="nj0VBdOls4TEGpNAEVAh-99">
          <mxGeometry relative="1" as="geometry" />
        </mxCell>
        <mxCell id="nj0VBdOls4TEGpNAEVAh-108" style="edgeStyle=orthogonalEdgeStyle;shape=connector;rounded=1;orthogonalLoop=1;jettySize=auto;elbow=vertical;html=1;entryX=1;entryY=0.5;entryDx=0;entryDy=0;labelBackgroundColor=default;strokeColor=#990000;strokeWidth=2;fontFamily=Helvetica;fontSize=11;fontColor=default;endArrow=classic;exitX=0.5;exitY=1;exitDx=0;exitDy=0;" edge="1" parent="1" source="nj0VBdOls4TEGpNAEVAh-100" target="nj0VBdOls4TEGpNAEVAh-105">
          <mxGeometry relative="1" as="geometry">
            <Array as="points">
              <mxPoint x="505" y="240" />
              <mxPoint x="420" y="240" />
              <mxPoint x="420" y="285" />
            </Array>
          </mxGeometry>
        </mxCell>
        <mxCell id="nj0VBdOls4TEGpNAEVAh-100" value="Sign in" style="whiteSpace=wrap;align=center;verticalAlign=middle;fontStyle=1;strokeWidth=3;fillColor=#FFFFCC;fontFamily=Helvetica;fontSize=11;fontColor=default;" vertex="1" parent="1">
          <mxGeometry x="460" y="160" width="90" height="60" as="geometry" />
        </mxCell>
        <mxCell id="nj0VBdOls4TEGpNAEVAh-115" style="edgeStyle=elbowEdgeStyle;shape=connector;rounded=1;orthogonalLoop=1;jettySize=auto;elbow=horizontal;html=1;labelBackgroundColor=default;strokeColor=#990000;strokeWidth=2;fontFamily=Helvetica;fontSize=11;fontColor=default;endArrow=classic;" edge="1" parent="1" source="nj0VBdOls4TEGpNAEVAh-105" target="nj0VBdOls4TEGpNAEVAh-114">
          <mxGeometry relative="1" as="geometry" />
        </mxCell>
        <mxCell id="nj0VBdOls4TEGpNAEVAh-117" style="edgeStyle=elbowEdgeStyle;shape=connector;rounded=1;orthogonalLoop=1;jettySize=auto;elbow=horizontal;html=1;labelBackgroundColor=default;strokeColor=#990000;strokeWidth=2;fontFamily=Helvetica;fontSize=11;fontColor=default;endArrow=classic;" edge="1" parent="1" source="nj0VBdOls4TEGpNAEVAh-105" target="nj0VBdOls4TEGpNAEVAh-116">
          <mxGeometry relative="1" as="geometry" />
        </mxCell>
        <mxCell id="nj0VBdOls4TEGpNAEVAh-105" value="User dashboard" style="shape=process;whiteSpace=wrap;align=center;verticalAlign=middle;size=0.0475;fontStyle=1;strokeWidth=3;fillColor=#FFCCCC;fontFamily=Helvetica;fontSize=11;fontColor=default;" vertex="1" parent="1">
          <mxGeometry x="40" y="260" width="340" height="50" as="geometry" />
        </mxCell>
        <mxCell id="nj0VBdOls4TEGpNAEVAh-119" style="edgeStyle=elbowEdgeStyle;shape=connector;rounded=1;orthogonalLoop=1;jettySize=auto;elbow=horizontal;html=1;labelBackgroundColor=default;strokeColor=#990000;strokeWidth=2;fontFamily=Helvetica;fontSize=11;fontColor=default;endArrow=classic;" edge="1" parent="1" source="nj0VBdOls4TEGpNAEVAh-106" target="nj0VBdOls4TEGpNAEVAh-118">
          <mxGeometry relative="1" as="geometry" />
        </mxCell>
        <mxCell id="nj0VBdOls4TEGpNAEVAh-106" value="Owner dashboard" style="shape=process;whiteSpace=wrap;align=center;verticalAlign=middle;size=0.0475;fontStyle=1;strokeWidth=3;fillColor=#FFCCCC;fontFamily=Helvetica;fontSize=11;fontColor=default;" vertex="1" parent="1">
          <mxGeometry x="460" y="260" width="340" height="50" as="geometry" />
        </mxCell>
        <mxCell id="nj0VBdOls4TEGpNAEVAh-109" style="edgeStyle=orthogonalEdgeStyle;shape=connector;rounded=1;orthogonalLoop=1;jettySize=auto;elbow=vertical;html=1;entryX=0;entryY=0.5;entryDx=0;entryDy=0;labelBackgroundColor=default;strokeColor=#990000;strokeWidth=2;fontFamily=Helvetica;fontSize=11;fontColor=default;endArrow=classic;exitX=0.5;exitY=1;exitDx=0;exitDy=0;" edge="1" parent="1" target="nj0VBdOls4TEGpNAEVAh-106">
          <mxGeometry relative="1" as="geometry">
            <mxPoint x="505" y="220" as="sourcePoint" />
            <mxPoint x="380" y="285" as="targetPoint" />
            <Array as="points">
              <mxPoint x="505" y="240" />
              <mxPoint x="420" y="240" />
              <mxPoint x="420" y="285" />
            </Array>
          </mxGeometry>
        </mxCell>
        <mxCell id="nj0VBdOls4TEGpNAEVAh-110" value="ToS / privacy&#xa;policy" style="whiteSpace=wrap;align=center;verticalAlign=middle;fontStyle=1;strokeWidth=3;fillColor=#FFFFCC;fontFamily=Helvetica;fontSize=11;fontColor=default;" vertex="1" parent="1">
          <mxGeometry x="670" y="150" width="90" height="60" as="geometry" />
        </mxCell>
        <mxCell id="nj0VBdOls4TEGpNAEVAh-112" value="Portfolio" style="whiteSpace=wrap;align=center;verticalAlign=middle;fontStyle=1;strokeWidth=3;fillColor=#FFFFCC;fontFamily=Helvetica;fontSize=11;fontColor=default;" vertex="1" parent="1">
          <mxGeometry x="70" y="65" width="90" height="60" as="geometry" />
        </mxCell>
        <mxCell id="nj0VBdOls4TEGpNAEVAh-121" style="edgeStyle=elbowEdgeStyle;shape=connector;rounded=1;orthogonalLoop=1;jettySize=auto;elbow=horizontal;html=1;entryX=0;entryY=0.5;entryDx=0;entryDy=0;labelBackgroundColor=default;strokeColor=#990000;strokeWidth=2;fontFamily=Helvetica;fontSize=11;fontColor=default;endArrow=classic;" edge="1" parent="1" source="nj0VBdOls4TEGpNAEVAh-114" target="nj0VBdOls4TEGpNAEVAh-120">
          <mxGeometry relative="1" as="geometry">
            <Array as="points">
              <mxPoint x="40" y="470" />
            </Array>
          </mxGeometry>
        </mxCell>
        <mxCell id="nj0VBdOls4TEGpNAEVAh-123" style="edgeStyle=elbowEdgeStyle;shape=connector;rounded=1;orthogonalLoop=1;jettySize=auto;elbow=horizontal;html=1;entryX=0;entryY=0.5;entryDx=0;entryDy=0;labelBackgroundColor=default;strokeColor=#990000;strokeWidth=2;fontFamily=Helvetica;fontSize=11;fontColor=default;endArrow=classic;" edge="1" parent="1" source="nj0VBdOls4TEGpNAEVAh-114" target="nj0VBdOls4TEGpNAEVAh-122">
          <mxGeometry relative="1" as="geometry">
            <Array as="points">
              <mxPoint x="40" y="520" />
            </Array>
          </mxGeometry>
        </mxCell>
        <mxCell id="nj0VBdOls4TEGpNAEVAh-125" style="edgeStyle=elbowEdgeStyle;shape=connector;rounded=1;orthogonalLoop=1;jettySize=auto;elbow=horizontal;html=1;entryX=0;entryY=0.5;entryDx=0;entryDy=0;labelBackgroundColor=default;strokeColor=#990000;strokeWidth=2;fontFamily=Helvetica;fontSize=11;fontColor=default;endArrow=classic;" edge="1" parent="1" source="nj0VBdOls4TEGpNAEVAh-114" target="nj0VBdOls4TEGpNAEVAh-124">
          <mxGeometry relative="1" as="geometry">
            <Array as="points">
              <mxPoint x="40" y="560" />
            </Array>
          </mxGeometry>
        </mxCell>
        <mxCell id="nj0VBdOls4TEGpNAEVAh-137" style="edgeStyle=elbowEdgeStyle;shape=connector;rounded=1;orthogonalLoop=1;jettySize=auto;elbow=horizontal;html=1;entryX=0;entryY=0.5;entryDx=0;entryDy=0;labelBackgroundColor=default;strokeColor=#990000;strokeWidth=2;fontFamily=Helvetica;fontSize=11;fontColor=default;endArrow=classic;" edge="1" parent="1" source="nj0VBdOls4TEGpNAEVAh-114" target="nj0VBdOls4TEGpNAEVAh-136">
          <mxGeometry relative="1" as="geometry">
            <Array as="points">
              <mxPoint x="40" y="610" />
            </Array>
          </mxGeometry>
        </mxCell>
        <mxCell id="nj0VBdOls4TEGpNAEVAh-114" value="&lt;p style=&quot;margin: 0px; margin-top: 4px; text-align: center; text-decoration: underline;&quot;&gt;&lt;strong&gt;Request list&lt;br&gt;&lt;/strong&gt;&lt;/p&gt;&lt;hr&gt;&lt;p style=&quot;margin: 0px; margin-left: 8px;&quot;&gt;All requests&lt;/p&gt;&lt;p style=&quot;margin: 0px; margin-left: 8px;&quot;&gt;created by&lt;/p&gt;&lt;p style=&quot;margin: 0px; margin-left: 8px;&quot;&gt;the user&lt;/p&gt;" style="verticalAlign=middle;align=center;overflow=fill;fontSize=12;fontFamily=Helvetica;html=1;rounded=1;fontStyle=1;strokeWidth=3;fillColor=#E6FFCC;fontColor=default;" vertex="1" parent="1">
          <mxGeometry x="70" y="360" width="110" height="90" as="geometry" />
        </mxCell>
        <mxCell id="nj0VBdOls4TEGpNAEVAh-127" style="edgeStyle=elbowEdgeStyle;shape=connector;rounded=1;orthogonalLoop=1;jettySize=auto;elbow=horizontal;html=1;entryX=0;entryY=0.5;entryDx=0;entryDy=0;labelBackgroundColor=default;strokeColor=#990000;strokeWidth=2;fontFamily=Helvetica;fontSize=11;fontColor=default;endArrow=classic;" edge="1" parent="1" source="nj0VBdOls4TEGpNAEVAh-116" target="nj0VBdOls4TEGpNAEVAh-126">
          <mxGeometry relative="1" as="geometry">
            <Array as="points">
              <mxPoint x="210" y="480" />
            </Array>
          </mxGeometry>
        </mxCell>
        <mxCell id="nj0VBdOls4TEGpNAEVAh-129" style="edgeStyle=elbowEdgeStyle;shape=connector;rounded=1;orthogonalLoop=1;jettySize=auto;elbow=horizontal;html=1;entryX=0;entryY=0.5;entryDx=0;entryDy=0;labelBackgroundColor=default;strokeColor=#990000;strokeWidth=2;fontFamily=Helvetica;fontSize=11;fontColor=default;endArrow=classic;" edge="1" parent="1" source="nj0VBdOls4TEGpNAEVAh-116" target="nj0VBdOls4TEGpNAEVAh-128">
          <mxGeometry relative="1" as="geometry">
            <Array as="points">
              <mxPoint x="210" y="520" />
            </Array>
          </mxGeometry>
        </mxCell>
        <mxCell id="nj0VBdOls4TEGpNAEVAh-131" style="edgeStyle=elbowEdgeStyle;shape=connector;rounded=1;orthogonalLoop=1;jettySize=auto;elbow=horizontal;html=1;entryX=0;entryY=0.5;entryDx=0;entryDy=0;labelBackgroundColor=default;strokeColor=#990000;strokeWidth=2;fontFamily=Helvetica;fontSize=11;fontColor=default;endArrow=classic;" edge="1" parent="1" source="nj0VBdOls4TEGpNAEVAh-116" target="nj0VBdOls4TEGpNAEVAh-130">
          <mxGeometry relative="1" as="geometry">
            <Array as="points">
              <mxPoint x="210" y="570" />
            </Array>
          </mxGeometry>
        </mxCell>
        <mxCell id="nj0VBdOls4TEGpNAEVAh-116" value="&lt;p style=&quot;margin: 0px; margin-top: 4px; text-align: center; text-decoration: underline;&quot;&gt;&lt;strong&gt;User settings&lt;br&gt;&lt;/strong&gt;&lt;/p&gt;&lt;hr&gt;&lt;p style=&quot;margin: 0px; margin-left: 8px;&quot;&gt;Change&lt;/p&gt;&lt;p style=&quot;margin: 0px; margin-left: 8px;&quot;&gt;user&#39;s personal&lt;/p&gt;&lt;p style=&quot;margin: 0px; margin-left: 8px;&quot;&gt;details&lt;/p&gt;" style="verticalAlign=middle;align=center;overflow=fill;fontSize=12;fontFamily=Helvetica;html=1;rounded=1;fontStyle=1;strokeWidth=3;fillColor=#E6FFCC;fontColor=default;" vertex="1" parent="1">
          <mxGeometry x="240" y="360" width="110" height="90" as="geometry" />
        </mxCell>
        <mxCell id="nj0VBdOls4TEGpNAEVAh-133" style="edgeStyle=elbowEdgeStyle;shape=connector;rounded=1;orthogonalLoop=1;jettySize=auto;elbow=horizontal;html=1;entryX=0;entryY=0.5;entryDx=0;entryDy=0;labelBackgroundColor=default;strokeColor=#990000;strokeWidth=2;fontFamily=Helvetica;fontSize=11;fontColor=default;endArrow=classic;" edge="1" parent="1" source="nj0VBdOls4TEGpNAEVAh-118" target="nj0VBdOls4TEGpNAEVAh-132">
          <mxGeometry relative="1" as="geometry">
            <Array as="points">
              <mxPoint x="550" y="460" />
            </Array>
          </mxGeometry>
        </mxCell>
        <mxCell id="nj0VBdOls4TEGpNAEVAh-135" style="edgeStyle=elbowEdgeStyle;shape=connector;rounded=1;orthogonalLoop=1;jettySize=auto;elbow=horizontal;html=1;entryX=0;entryY=0.5;entryDx=0;entryDy=0;labelBackgroundColor=default;strokeColor=#990000;strokeWidth=2;fontFamily=Helvetica;fontSize=11;fontColor=default;endArrow=classic;" edge="1" parent="1" source="nj0VBdOls4TEGpNAEVAh-118" target="nj0VBdOls4TEGpNAEVAh-134">
          <mxGeometry relative="1" as="geometry">
            <Array as="points">
              <mxPoint x="550" y="530" />
            </Array>
          </mxGeometry>
        </mxCell>
        <mxCell id="nj0VBdOls4TEGpNAEVAh-139" style="edgeStyle=elbowEdgeStyle;shape=connector;rounded=1;orthogonalLoop=1;jettySize=auto;elbow=horizontal;html=1;entryX=0;entryY=0.5;entryDx=0;entryDy=0;labelBackgroundColor=default;strokeColor=#990000;strokeWidth=2;fontFamily=Helvetica;fontSize=11;fontColor=default;endArrow=classic;" edge="1" parent="1" source="nj0VBdOls4TEGpNAEVAh-118" target="nj0VBdOls4TEGpNAEVAh-138">
          <mxGeometry relative="1" as="geometry">
            <Array as="points">
              <mxPoint x="550" y="560" />
            </Array>
          </mxGeometry>
        </mxCell>
        <mxCell id="nj0VBdOls4TEGpNAEVAh-118" value="&lt;p style=&quot;margin: 0px; margin-top: 4px; text-align: center; text-decoration: underline;&quot;&gt;&lt;strong&gt;Request list&lt;br&gt;&lt;/strong&gt;&lt;/p&gt;&lt;hr&gt;&lt;p style=&quot;margin: 0px; margin-left: 8px;&quot;&gt;All requests&lt;/p&gt;&lt;p style=&quot;margin: 0px; margin-left: 8px;&quot;&gt;created by&lt;/p&gt;&lt;p style=&quot;margin: 0px; margin-left: 8px;&quot;&gt;&lt;u&gt;any&lt;/u&gt; user&lt;/p&gt;" style="verticalAlign=middle;align=center;overflow=fill;fontSize=12;fontFamily=Helvetica;html=1;rounded=1;fontStyle=1;strokeWidth=3;fillColor=#E6FFCC;fontColor=default;" vertex="1" parent="1">
          <mxGeometry x="580" y="360" width="110" height="90" as="geometry" />
        </mxCell>
        <mxCell id="nj0VBdOls4TEGpNAEVAh-120" value="Create new&#xa;request" style="whiteSpace=wrap;align=center;verticalAlign=middle;fontStyle=1;strokeWidth=3;fillColor=#FFFFCC;fontFamily=Helvetica;fontSize=11;fontColor=default;" vertex="1" parent="1">
          <mxGeometry x="80" y="480" width="90" height="60" as="geometry" />
        </mxCell>
        <mxCell id="nj0VBdOls4TEGpNAEVAh-122" value="Pay for a request that&#xa;has a quote" style="whiteSpace=wrap;align=center;verticalAlign=middle;fontStyle=1;strokeWidth=3;fillColor=#FFFFCC;fontFamily=Helvetica;fontSize=11;fontColor=default;" vertex="1" parent="1">
          <mxGeometry x="80" y="560" width="90" height="60" as="geometry" />
        </mxCell>
        <mxCell id="nj0VBdOls4TEGpNAEVAh-124" value="Leave testimonal on a completed request" style="whiteSpace=wrap;align=center;verticalAlign=middle;fontStyle=1;strokeWidth=3;fillColor=#FFFFCC;fontFamily=Helvetica;fontSize=11;fontColor=default;" vertex="1" parent="1">
          <mxGeometry x="80" y="640" width="90" height="60" as="geometry" />
        </mxCell>
        <mxCell id="nj0VBdOls4TEGpNAEVAh-126" value="Modify private&#xa;details" style="whiteSpace=wrap;align=center;verticalAlign=middle;fontStyle=1;strokeWidth=3;fillColor=#FFFFCC;fontFamily=Helvetica;fontSize=11;fontColor=default;" vertex="1" parent="1">
          <mxGeometry x="250" y="480" width="90" height="60" as="geometry" />
        </mxCell>
        <mxCell id="nj0VBdOls4TEGpNAEVAh-128" value="Modify public&#xa;(testimonal)&#xa;details" style="whiteSpace=wrap;align=center;verticalAlign=middle;fontStyle=1;strokeWidth=3;fillColor=#FFFFCC;fontFamily=Helvetica;fontSize=11;fontColor=default;" vertex="1" parent="1">
          <mxGeometry x="250" y="560" width="90" height="60" as="geometry" />
        </mxCell>
        <mxCell id="nj0VBdOls4TEGpNAEVAh-130" value="Delete account" style="whiteSpace=wrap;align=center;verticalAlign=middle;fontStyle=1;strokeWidth=3;fillColor=#FFFFCC;fontFamily=Helvetica;fontSize=11;fontColor=default;" vertex="1" parent="1">
          <mxGeometry x="250" y="640" width="90" height="60" as="geometry" />
        </mxCell>
        <mxCell id="nj0VBdOls4TEGpNAEVAh-132" value="Submit quote&#xa;to a new&#xa;request" style="whiteSpace=wrap;align=center;verticalAlign=middle;fontStyle=1;strokeWidth=3;fillColor=#FFFFCC;fontFamily=Helvetica;fontSize=11;fontColor=default;" vertex="1" parent="1">
          <mxGeometry x="590" y="480" width="90" height="60" as="geometry" />
        </mxCell>
        <mxCell id="nj0VBdOls4TEGpNAEVAh-134" value="Update paid&#xa;request as&#xa;complete" style="whiteSpace=wrap;align=center;verticalAlign=middle;fontStyle=1;strokeWidth=3;fillColor=#FFFFCC;fontFamily=Helvetica;fontSize=11;fontColor=default;" vertex="1" parent="1">
          <mxGeometry x="590" y="560" width="90" height="60" as="geometry" />
        </mxCell>
        <mxCell id="nj0VBdOls4TEGpNAEVAh-136" value="Cancel a request" style="whiteSpace=wrap;align=center;verticalAlign=middle;fontStyle=1;strokeWidth=3;fillColor=#FFFFCC;fontFamily=Helvetica;fontSize=11;fontColor=default;" vertex="1" parent="1">
          <mxGeometry x="80" y="720" width="90" height="60" as="geometry" />
        </mxCell>
        <mxCell id="nj0VBdOls4TEGpNAEVAh-138" value="Reject a&#xa;request" style="whiteSpace=wrap;align=center;verticalAlign=middle;fontStyle=1;strokeWidth=3;fillColor=#FFFFCC;fontFamily=Helvetica;fontSize=11;fontColor=default;" vertex="1" parent="1">
          <mxGeometry x="590" y="640" width="90" height="60" as="geometry" />
        </mxCell>
        <mxCell id="nj0VBdOls4TEGpNAEVAh-140" value="Testimonials" style="whiteSpace=wrap;align=center;verticalAlign=middle;fontStyle=1;strokeWidth=3;fillColor=#FFFFCC;fontFamily=Helvetica;fontSize=11;fontColor=default;" vertex="1" parent="1">
          <mxGeometry x="70" y="150" width="90" height="60" as="geometry" />
        </mxCell>
      </root>
    </mxGraphModel>
  </diagram>
</mxfile>
